<?xml version="1.0" encoding="UTF-8"?>
<svg xmlns="http://www.w3.org/2000/svg" xmlns:xlink="http://www.w3.org/1999/xlink" width="3525" height="3383" viewBox="0 0 3525 3383">
<defs>
<clipPath id="clip-0">
<path clip-rule="nonzero" d="M 2993.398438 1014.800781 L 1957.898438 1014.800781 C 1924.5 1014.800781 1897.398438 987.699219 1897.398438 954.300781 C 1897.398438 920.898438 1924.5 893.800781 1957.898438 893.800781 L 2993.398438 893.800781 C 3026.800781 893.800781 3053.898438 920.898438 3053.898438 954.300781 C 3053.898438 987.699219 3026.800781 1014.800781 2993.398438 1014.800781 Z M 2993.398438 561.5 L 1957.898438 561.5 C 1924.5 561.5 1897.398438 534.398438 1897.398438 501 C 1897.398438 467.601562 1924.5 440.5 1957.898438 440.5 L 2993.398438 440.5 C 3026.800781 440.5 3053.898438 467.601562 3053.898438 501 C 3053.898438 534.398438 3026.800781 561.5 2993.398438 561.5 Z M 1917.398438 1671.199219 C 1884 1671.199219 1856.898438 1644.101562 1856.898438 1610.699219 L 1856.898438 1394.699219 C 1856.898438 1361.300781 1884 1334.199219 1917.398438 1334.199219 C 1950.800781 1334.199219 1977.898438 1361.300781 1977.898438 1394.699219 L 1977.898438 1610.800781 C 1977.898438 1644.199219 1950.800781 1671.300781 1917.398438 1671.199219 C 1917.398438 1671.300781 1917.398438 1671.300781 1917.398438 1671.199219 Z M 2177.898438 1736.898438 C 2144.5 1736.898438 2117.398438 1709.800781 2117.398438 1676.398438 C 2117.398438 1654.800781 2129 1634.800781 2147.699219 1624 L 2626.699219 1347.398438 C 2655.699219 1330.699219 2692.699219 1340.601562 2709.398438 1369.601562 C 2726.101562 1398.601562 2716.199219 1435.601562 2687.199219 1452.300781 L 2208.199219 1728.898438 C 2199 1734.101562 2188.5 1736.898438 2177.898438 1736.898438 Z M 3291.199219 1455.199219 L 2656.898438 1455.199219 C 2623.5 1455.199219 2596.398438 1428.101562 2596.398438 1394.699219 C 2596.398438 1361.300781 2623.5 1334.199219 2656.898438 1334.199219 L 3291.199219 1334.199219 C 3353.5 1334.101562 3403.898438 1283.699219 3404 1221.398438 L 3404 233.800781 C 3403.898438 171.5 3353.5 121.101562 3291.199219 121 L 1660.101562 121 C 1597.800781 121.101562 1547.398438 171.5 1547.300781 233.800781 L 1547.300781 1221.300781 C 1547.398438 1283.601562 1597.800781 1334 1660.101562 1334.101562 L 1917.300781 1334.101562 C 1950.699219 1334.101562 1977.800781 1361.199219 1977.800781 1394.601562 C 1977.800781 1428 1950.699219 1455.101562 1917.300781 1455.101562 L 1660.101562 1455.101562 C 1531.101562 1454.898438 1426.398438 1350.300781 1426.300781 1221.300781 L 1426.300781 233.800781 C 1426.5 104.800781 1531.101562 0.101562 1660.101562 0 L 3291.199219 0 C 3420.199219 0.199219 3524.898438 104.800781 3525 233.800781 L 3525 1221.300781 C 3524.898438 1350.398438 3420.199219 1455 3291.199219 1455.199219 Z M 2056.398438 2232.800781 C 1986.398438 2232.898438 1929.699219 2289.601562 1929.601562 2359.601562 L 1929.601562 2570.800781 C 1927.898438 2640.800781 1983.199219 2698.898438 2053.300781 2700.601562 C 2123.300781 2702.300781 2181.398438 2647 2183.101562 2576.898438 C 2183.199219 2574.898438 2183.199219 2572.699219 2183.101562 2570.699219 L 2183.101562 2359.300781 C 2183 2289.300781 2126.398438 2232.601562 2056.398438 2232.5 Z M 2056.398438 2818.601562 C 1919.601562 2818.398438 1808.699219 2707.601562 1808.601562 2570.800781 L 1808.601562 2359.398438 C 1806.199219 2222.601562 1915.199219 2109.699219 2052 2107.300781 C 2188.800781 2104.898438 2301.699219 2213.898438 2304.101562 2350.699219 C 2304.199219 2353.601562 2304.199219 2356.398438 2304.101562 2359.300781 L 2304.101562 2570.5 C 2304.199219 2707.398438 2193.300781 2818.398438 2056.398438 2818.601562 Z M 1019.300781 2232.800781 C 949.398438 2232.898438 892.699219 2289.5 892.601562 2359.398438 L 892.601562 2570.601562 C 890.898438 2640.601562 946.199219 2698.699219 1016.300781 2700.398438 C 1086.300781 2702.101562 1144.398438 2646.800781 1146.101562 2576.699219 C 1146.199219 2574.699219 1146.199219 2572.5 1146.101562 2570.5 L 1146.101562 2359.300781 C 1146 2289.300781 1089.300781 2232.601562 1019.300781 2232.5 Z M 1019.300781 2818.601562 C 882.5 2818.398438 771.601562 2707.398438 771.601562 2570.601562 L 771.601562 2359.398438 C 769.199219 2222.601562 878.199219 2109.699219 1015 2107.300781 C 1151.800781 2104.898438 1264.699219 2213.898438 1267.101562 2350.699219 C 1267.199219 2353.601562 1267.199219 2356.398438 1267.101562 2359.300781 L 1267.101562 2570.5 C 1267 2707.5 1156.199219 2818.398438 1019.300781 2818.601562 Z M 2813.898438 2927.398438 L 2598.601562 2927.398438 C 2565.199219 2927.398438 2538.101562 2900.300781 2538.101562 2866.898438 C 2538.101562 2833.5 2565.199219 2806.398438 2598.601562 2806.398438 L 2813.898438 2806.398438 C 2860.101562 2806.398438 2891.601562 2757.601562 2909.898438 2716.699219 C 2938.601562 2652.300781 2955.300781 2560.601562 2955.300781 2465 C 2955.300781 2273.5 2893.300781 2123.601562 2814.101562 2123.601562 L 2598.601562 2123.601562 C 2565.199219 2123.601562 2538.101562 2096.5 2538.101562 2063.101562 C 2538.101562 2029.699219 2565.199219 2002.601562 2598.601562 2002.601562 L 2813.898438 2002.601562 C 2995 2002.601562 3076.101562 2234.800781 3076.101562 2465 C 3076.101562 2695.199219 2994.699219 2927.398438 2813.898438 2927.398438 Z M 477.101562 2927.398438 L 262.199219 2927.398438 C 81.101562 2927.398438 0 2695.199219 0 2465 C 0 2351.5 19.699219 2244.5 55.699219 2164 C 102.101562 2059.898438 175.398438 2002.601562 262.199219 2002.601562 L 477.101562 2002.601562 C 510.5 2002.601562 537.601562 2029.699219 537.601562 2063.101562 C 537.601562 2096.5 510.5 2123.601562 477.101562 2123.601562 L 262.199219 2123.601562 C 183 2123.601562 121 2273.5 121 2465 C 121 2656.5 183 2806.398438 262.199219 2806.398438 L 477.101562 2806.398438 C 510.5 2806.398438 537.601562 2833.5 537.601562 2866.898438 C 537.601562 2900.300781 510.5 2927.398438 477.101562 2927.398438 Z M 785.398438 544.300781 C 679.601562 544.199219 593.800781 630 593.699219 735.800781 C 593.601562 841.601562 679.398438 927.398438 785.199219 927.5 C 891 927.601562 976.800781 841.800781 976.898438 736 C 976.898438 735.898438 976.898438 735.898438 976.898438 735.800781 C 976.800781 630.199219 891.101562 544.601562 785.398438 544.300781 C 785.398438 544.398438 785.398438 544.300781 785.398438 544.300781 Z M 785.398438 1048.5 C 612.699219 1048.601562 472.800781 908.601562 472.699219 735.898438 C 472.601562 563.199219 612.601562 423.300781 785.300781 423.199219 C 958 423.101562 1097.898438 563.101562 1098 735.800781 L 1098 735.898438 C 1097.699219 908.398438 957.898438 1048.300781 785.398438 1048.5 Z M 734.898438 1833.199219 C 701.5 1833.199219 674.398438 1806.101562 674.398438 1772.699219 L 674.398438 988 C 674.398438 954.601562 701.5 927.5 734.898438 927.5 C 768.300781 927.5 795.398438 954.601562 795.398438 988 L 795.398438 1772.699219 C 795.5 1806.101562 768.398438 1833.199219 734.898438 1833.199219 Z M 1233.800781 1668 C 793.601562 1668.199219 437 2025.101562 437.101562 2465.300781 C 437.300781 2905.199219 793.800781 3261.800781 1233.800781 3262 L 1841.898438 3262 C 2282.101562 3262 2638.898438 2905.199219 2638.898438 2465 C 2638.898438 2024.800781 2282.101562 1668 1841.898438 1668 Z M 1841.898438 3383 L 1233.800781 3383 C 726.800781 3382.898438 315.898438 2971.898438 315.898438 2464.800781 C 316 1957.898438 726.898438 1546.898438 1233.800781 1546.898438 L 1841.898438 1546.898438 C 2348.898438 1547 2759.800781 1958 2759.800781 2465.101562 C 2759.800781 2972 2348.800781 3382.898438 1841.898438 3383 Z M 1841.898438 3383 "/>
</clipPath>
<clipPath id="clip-1">
<path clip-rule="nonzero" d="M 2993.398438 1014.800781 L 1957.898438 1014.800781 C 1924.5 1014.800781 1897.398438 987.699219 1897.398438 954.300781 C 1897.398438 920.898438 1924.5 893.800781 1957.898438 893.800781 L 2993.398438 893.800781 C 3026.800781 893.800781 3053.898438 920.898438 3053.898438 954.300781 C 3053.898438 987.699219 3026.800781 1014.800781 2993.398438 1014.800781 Z M 2993.398438 561.5 L 1957.898438 561.5 C 1924.5 561.5 1897.398438 534.398438 1897.398438 501 C 1897.398438 467.601562 1924.5 440.5 1957.898438 440.5 L 2993.398438 440.5 C 3026.800781 440.5 3053.898438 467.601562 3053.898438 501 C 3053.898438 534.398438 3026.800781 561.5 2993.398438 561.5 Z M 1917.398438 1671.199219 C 1884 1671.199219 1856.898438 1644.101562 1856.898438 1610.699219 L 1856.898438 1394.699219 C 1856.898438 1361.300781 1884 1334.199219 1917.398438 1334.199219 C 1950.800781 1334.199219 1977.898438 1361.300781 1977.898438 1394.699219 L 1977.898438 1610.800781 C 1977.898438 1644.199219 1950.800781 1671.300781 1917.398438 1671.199219 C 1917.398438 1671.300781 1917.398438 1671.300781 1917.398438 1671.199219 Z M 2177.898438 1736.898438 C 2144.5 1736.898438 2117.398438 1709.800781 2117.398438 1676.398438 C 2117.398438 1654.800781 2129 1634.800781 2147.699219 1624 L 2626.699219 1347.398438 C 2655.699219 1330.699219 2692.699219 1340.601562 2709.398438 1369.601562 C 2726.101562 1398.601562 2716.199219 1435.601562 2687.199219 1452.300781 L 2208.199219 1728.898438 C 2199 1734.101562 2188.5 1736.898438 2177.898438 1736.898438 Z M 3291.199219 1455.199219 L 2656.898438 1455.199219 C 2623.5 1455.199219 2596.398438 1428.101562 2596.398438 1394.699219 C 2596.398438 1361.300781 2623.5 1334.199219 2656.898438 1334.199219 L 3291.199219 1334.199219 C 3353.5 1334.101562 3403.898438 1283.699219 3404 1221.398438 L 3404 233.800781 C 3403.898438 171.5 3353.5 121.101562 3291.199219 121 L 1660.101562 121 C 1597.800781 121.101562 1547.398438 171.5 1547.300781 233.800781 L 1547.300781 1221.300781 C 1547.398438 1283.601562 1597.800781 1334 1660.101562 1334.101562 L 1917.300781 1334.101562 C 1950.699219 1334.101562 1977.800781 1361.199219 1977.800781 1394.601562 C 1977.800781 1428 1950.699219 1455.101562 1917.300781 1455.101562 L 1660.101562 1455.101562 C 1531.101562 1454.898438 1426.398438 1350.300781 1426.300781 1221.300781 L 1426.300781 233.800781 C 1426.5 104.800781 1531.101562 0.101562 1660.101562 0 L 3291.199219 0 C 3420.199219 0.199219 3524.898438 104.800781 3525 233.800781 L 3525 1221.300781 C 3524.898438 1350.398438 3420.199219 1455 3291.199219 1455.199219 Z M 2056.398438 2232.800781 C 1986.398438 2232.898438 1929.699219 2289.601562 1929.601562 2359.601562 L 1929.601562 2570.800781 C 1927.898438 2640.800781 1983.199219 2698.898438 2053.300781 2700.601562 C 2123.300781 2702.300781 2181.398438 2647 2183.101562 2576.898438 C 2183.199219 2574.898438 2183.199219 2572.699219 2183.101562 2570.699219 L 2183.101562 2359.300781 C 2183 2289.300781 2126.398438 2232.601562 2056.398438 2232.5 Z M 2056.398438 2818.601562 C 1919.601562 2818.398438 1808.699219 2707.601562 1808.601562 2570.800781 L 1808.601562 2359.398438 C 1806.199219 2222.601562 1915.199219 2109.699219 2052 2107.300781 C 2188.800781 2104.898438 2301.699219 2213.898438 2304.101562 2350.699219 C 2304.199219 2353.601562 2304.199219 2356.398438 2304.101562 2359.300781 L 2304.101562 2570.5 C 2304.199219 2707.398438 2193.300781 2818.398438 2056.398438 2818.601562 Z M 1019.300781 2232.800781 C 949.398438 2232.898438 892.699219 2289.5 892.601562 2359.398438 L 892.601562 2570.601562 C 890.898438 2640.601562 946.199219 2698.699219 1016.300781 2700.398438 C 1086.300781 2702.101562 1144.398438 2646.800781 1146.101562 2576.699219 C 1146.199219 2574.699219 1146.199219 2572.5 1146.101562 2570.5 L 1146.101562 2359.300781 C 1146 2289.300781 1089.300781 2232.601562 1019.300781 2232.5 Z M 1019.300781 2818.601562 C 882.5 2818.398438 771.601562 2707.398438 771.601562 2570.601562 L 771.601562 2359.398438 C 769.199219 2222.601562 878.199219 2109.699219 1015 2107.300781 C 1151.800781 2104.898438 1264.699219 2213.898438 1267.101562 2350.699219 C 1267.199219 2353.601562 1267.199219 2356.398438 1267.101562 2359.300781 L 1267.101562 2570.5 C 1267 2707.5 1156.199219 2818.398438 1019.300781 2818.601562 Z M 2813.898438 2927.398438 L 2598.601562 2927.398438 C 2565.199219 2927.398438 2538.101562 2900.300781 2538.101562 2866.898438 C 2538.101562 2833.5 2565.199219 2806.398438 2598.601562 2806.398438 L 2813.898438 2806.398438 C 2860.101562 2806.398438 2891.601562 2757.601562 2909.898438 2716.699219 C 2938.601562 2652.300781 2955.300781 2560.601562 2955.300781 2465 C 2955.300781 2273.5 2893.300781 2123.601562 2814.101562 2123.601562 L 2598.601562 2123.601562 C 2565.199219 2123.601562 2538.101562 2096.5 2538.101562 2063.101562 C 2538.101562 2029.699219 2565.199219 2002.601562 2598.601562 2002.601562 L 2813.898438 2002.601562 C 2995 2002.601562 3076.101562 2234.800781 3076.101562 2465 C 3076.101562 2695.199219 2994.699219 2927.398438 2813.898438 2927.398438 Z M 477.101562 2927.398438 L 262.199219 2927.398438 C 81.101562 2927.398438 0 2695.199219 0 2465 C 0 2351.5 19.699219 2244.5 55.699219 2164 C 102.101562 2059.898438 175.398438 2002.601562 262.199219 2002.601562 L 477.101562 2002.601562 C 510.5 2002.601562 537.601562 2029.699219 537.601562 2063.101562 C 537.601562 2096.5 510.5 2123.601562 477.101562 2123.601562 L 262.199219 2123.601562 C 183 2123.601562 121 2273.5 121 2465 C 121 2656.5 183 2806.398438 262.199219 2806.398438 L 477.101562 2806.398438 C 510.5 2806.398438 537.601562 2833.5 537.601562 2866.898438 C 537.601562 2900.300781 510.5 2927.398438 477.101562 2927.398438 Z M 785.398438 544.300781 C 679.601562 544.199219 593.800781 630 593.699219 735.800781 C 593.601562 841.601562 679.398438 927.398438 785.199219 927.5 C 891 927.601562 976.800781 841.800781 976.898438 736 C 976.898438 735.898438 976.898438 735.898438 976.898438 735.800781 C 976.800781 630.199219 891.101562 544.601562 785.398438 544.300781 C 785.398438 544.398438 785.398438 544.300781 785.398438 544.300781 Z M 785.398438 1048.5 C 612.699219 1048.601562 472.800781 908.601562 472.699219 735.898438 C 472.601562 563.199219 612.601562 423.300781 785.300781 423.199219 C 958 423.101562 1097.898438 563.101562 1098 735.800781 L 1098 735.898438 C 1097.699219 908.398438 957.898438 1048.300781 785.398438 1048.5 Z M 734.898438 1833.199219 C 701.5 1833.199219 674.398438 1806.101562 674.398438 1772.699219 L 674.398438 988 C 674.398438 954.601562 701.5 927.5 734.898438 927.5 C 768.300781 927.5 795.398438 954.601562 795.398438 988 L 795.398438 1772.699219 C 795.5 1806.101562 768.398438 1833.199219 734.898438 1833.199219 Z M 1233.800781 1668 C 793.601562 1668.199219 437 2025.101562 437.101562 2465.300781 C 437.300781 2905.199219 793.800781 3261.800781 1233.800781 3262 L 1841.898438 3262 C 2282.101562 3262 2638.898438 2905.199219 2638.898438 2465 C 2638.898438 2024.800781 2282.101562 1668 1841.898438 1668 Z M 1841.898438 3383 L 1233.800781 3383 C 726.800781 3382.898438 315.898438 2971.898438 315.898438 2464.800781 C 316 1957.898438 726.898438 1546.898438 1233.800781 1546.898438 L 1841.898438 1546.898438 C 2348.898438 1547 2759.800781 1958 2759.800781 2465.101562 C 2759.800781 2972 2348.800781 3382.898438 1841.898438 3383 "/>
</clipPath>
<linearGradient id="linear-pattern-0" gradientUnits="userSpaceOnUse" x1="-0.22753" y1="0" x2="1.229135" y2="0" gradientTransform="matrix(2371.17, 2371.17, -2371.17, 2371.17, 700.124, 378.9)">
<stop offset="0" stop-color="rgb(34.365845%, 58.634949%, 84.017944%)" stop-opacity="1"/>
<stop offset="0.125" stop-color="rgb(34.365845%, 58.634949%, 84.017944%)" stop-opacity="1"/>
<stop offset="0.15625" stop-color="rgb(34.365845%, 58.633423%, 84.017944%)" stop-opacity="1"/>
<stop offset="0.160156" stop-color="rgb(34.263611%, 58.427429%, 83.901978%)" stop-opacity="1"/>
<stop offset="0.164062" stop-color="rgb(34.161377%, 58.221436%, 83.786011%)" stop-opacity="1"/>
<stop offset="0.167969" stop-color="rgb(33.901978%, 57.987976%, 83.66394%)" stop-opacity="1"/>
<stop offset="0.171875" stop-color="rgb(33.642578%, 57.756042%, 83.543396%)" stop-opacity="1"/>
<stop offset="0.175781" stop-color="rgb(33.340454%, 57.518005%, 83.421326%)" stop-opacity="1"/>
<stop offset="0.179688" stop-color="rgb(33.036804%, 57.279968%, 83.297729%)" stop-opacity="1"/>
<stop offset="0.183594" stop-color="rgb(32.937622%, 57.077026%, 83.183289%)" stop-opacity="1"/>
<stop offset="0.1875" stop-color="rgb(32.83844%, 56.877136%, 83.068848%)" stop-opacity="1"/>
<stop offset="0.191406" stop-color="rgb(32.739258%, 56.67572%, 82.954407%)" stop-opacity="1"/>
<stop offset="0.195313" stop-color="rgb(32.63855%, 56.474304%, 82.83844%)" stop-opacity="1"/>
<stop offset="0.199219" stop-color="rgb(32.478333%, 56.303406%, 82.745361%)" stop-opacity="1"/>
<stop offset="0.203125" stop-color="rgb(32.318115%, 56.130981%, 82.652283%)" stop-opacity="1"/>
<stop offset="0.207031" stop-color="rgb(32.081604%, 55.995178%, 82.585144%)" stop-opacity="1"/>
<stop offset="0.210938" stop-color="rgb(31.845093%, 55.859375%, 82.518005%)" stop-opacity="1"/>
<stop offset="0.214844" stop-color="rgb(31.761169%, 55.57251%, 82.348633%)" stop-opacity="1"/>
<stop offset="0.21875" stop-color="rgb(31.680298%, 55.285645%, 82.17926%)" stop-opacity="1"/>
<stop offset="0.222656" stop-color="rgb(31.578064%, 55.11322%, 82.081604%)" stop-opacity="1"/>
<stop offset="0.226563" stop-color="rgb(31.474304%, 54.940796%, 81.982422%)" stop-opacity="1"/>
<stop offset="0.230469" stop-color="rgb(31.370544%, 54.789734%, 81.896973%)" stop-opacity="1"/>
<stop offset="0.234375" stop-color="rgb(31.265259%, 54.638672%, 81.811523%)" stop-opacity="1"/>
<stop offset="0.238281" stop-color="rgb(31.184387%, 54.354858%, 81.642151%)" stop-opacity="1"/>
<stop offset="0.242188" stop-color="rgb(31.103516%, 54.071045%, 81.474304%)" stop-opacity="1"/>
<stop offset="0.25" stop-color="rgb(30.996704%, 53.936768%, 81.39801%)" stop-opacity="1"/>
<stop offset="0.253906" stop-color="rgb(30.734253%, 53.610229%, 81.213379%)" stop-opacity="1"/>
<stop offset="0.257812" stop-color="rgb(30.578613%, 53.414917%, 81.103516%)" stop-opacity="1"/>
<stop offset="0.261719" stop-color="rgb(30.378723%, 53.121948%, 80.934143%)" stop-opacity="1"/>
<stop offset="0.265625" stop-color="rgb(30.178833%, 52.830505%, 80.766296%)" stop-opacity="1"/>
<stop offset="0.269531" stop-color="rgb(30.084229%, 52.639771%, 80.653381%)" stop-opacity="1"/>
<stop offset="0.273438" stop-color="rgb(29.989624%, 52.44751%, 80.53894%)" stop-opacity="1"/>
<stop offset="0.277344" stop-color="rgb(29.989624%, 52.210999%, 80.393982%)" stop-opacity="1"/>
<stop offset="0.28125" stop-color="rgb(29.99115%, 51.972961%, 80.247498%)" stop-opacity="1"/>
<stop offset="0.285156" stop-color="rgb(30.000305%, 51.731873%, 80.097961%)" stop-opacity="1"/>
<stop offset="0.289062" stop-color="rgb(30.010986%, 51.490784%, 79.948425%)" stop-opacity="1"/>
<stop offset="0.292969" stop-color="rgb(29.917908%, 51.301575%, 79.83551%)" stop-opacity="1"/>
<stop offset="0.296875" stop-color="rgb(29.824829%, 51.11084%, 79.722595%)" stop-opacity="1"/>
<stop offset="0.300781" stop-color="rgb(29.855347%, 50.860596%, 79.56543%)" stop-opacity="1"/>
<stop offset="0.304688" stop-color="rgb(29.88739%, 50.610352%, 79.40979%)" stop-opacity="1"/>
<stop offset="0.308594" stop-color="rgb(29.928589%, 50.392151%, 79.272461%)" stop-opacity="1"/>
<stop offset="0.3125" stop-color="rgb(29.969788%, 50.17395%, 79.135132%)" stop-opacity="1"/>
<stop offset="0.316406" stop-color="rgb(30.014038%, 49.995422%, 79.022217%)" stop-opacity="1"/>
<stop offset="0.320313" stop-color="rgb(30.058289%, 49.815369%, 78.909302%)" stop-opacity="1"/>
<stop offset="0.324219" stop-color="rgb(30.233765%, 49.571228%, 78.75061%)" stop-opacity="1"/>
<stop offset="0.328125" stop-color="rgb(30.407715%, 49.325562%, 78.590393%)" stop-opacity="1"/>
<stop offset="0.332031" stop-color="rgb(30.580139%, 49.079895%, 78.431702%)" stop-opacity="1"/>
<stop offset="0.335938" stop-color="rgb(30.754089%, 48.832703%, 78.271484%)" stop-opacity="1"/>
<stop offset="0.339844" stop-color="rgb(30.926514%, 48.583984%, 78.112793%)" stop-opacity="1"/>
<stop offset="0.34375" stop-color="rgb(31.098938%, 48.335266%, 77.952576%)" stop-opacity="1"/>
<stop offset="0.347656" stop-color="rgb(31.271362%, 48.088074%, 77.792358%)" stop-opacity="1"/>
<stop offset="0.351563" stop-color="rgb(31.443787%, 47.83783%, 77.632141%)" stop-opacity="1"/>
<stop offset="0.355469" stop-color="rgb(31.616211%, 47.587585%, 77.471924%)" stop-opacity="1"/>
<stop offset="0.359375" stop-color="rgb(31.788635%, 47.335815%, 77.311707%)" stop-opacity="1"/>
<stop offset="0.363281" stop-color="rgb(31.959534%, 47.085571%, 77.151489%)" stop-opacity="1"/>
<stop offset="0.367188" stop-color="rgb(32.130432%, 46.833801%, 76.991272%)" stop-opacity="1"/>
<stop offset="0.371094" stop-color="rgb(32.302856%, 46.57135%, 76.823425%)" stop-opacity="1"/>
<stop offset="0.375" stop-color="rgb(32.473755%, 46.307373%, 76.657104%)" stop-opacity="1"/>
<stop offset="0.378906" stop-color="rgb(32.659912%, 45.967102%, 76.441956%)" stop-opacity="1"/>
<stop offset="0.382813" stop-color="rgb(32.844543%, 45.623779%, 76.225281%)" stop-opacity="1"/>
<stop offset="0.386719" stop-color="rgb(33.106995%, 45.350647%, 76.051331%)" stop-opacity="1"/>
<stop offset="0.390625" stop-color="rgb(33.36792%, 45.074463%, 75.87738%)" stop-opacity="1"/>
<stop offset="0.394531" stop-color="rgb(33.66394%, 44.798279%, 75.700378%)" stop-opacity="1"/>
<stop offset="0.398438" stop-color="rgb(33.958435%, 44.520569%, 75.523376%)" stop-opacity="1"/>
<stop offset="0.402344" stop-color="rgb(34.265137%, 44.180298%, 75.311279%)" stop-opacity="1"/>
<stop offset="0.40625" stop-color="rgb(34.567261%, 43.838501%, 75.09613%)" stop-opacity="1"/>
<stop offset="0.410156" stop-color="rgb(34.870911%, 43.495178%, 74.882507%)" stop-opacity="1"/>
<stop offset="0.414063" stop-color="rgb(35.173035%, 43.15033%, 74.667358%)" stop-opacity="1"/>
<stop offset="0.417969" stop-color="rgb(35.475159%, 42.803955%, 74.452209%)" stop-opacity="1"/>
<stop offset="0.421875" stop-color="rgb(35.775757%, 42.454529%, 74.237061%)" stop-opacity="1"/>
<stop offset="0.425781" stop-color="rgb(36.090088%, 42.118835%, 74.029541%)" stop-opacity="1"/>
<stop offset="0.429688" stop-color="rgb(36.402893%, 41.78009%, 73.820496%)" stop-opacity="1"/>
<stop offset="0.433594" stop-color="rgb(36.807251%, 41.522217%, 73.661804%)" stop-opacity="1"/>
<stop offset="0.4375" stop-color="rgb(37.210083%, 41.262817%, 73.503113%)" stop-opacity="1"/>
<stop offset="0.441406" stop-color="rgb(37.626648%, 40.936279%, 73.193359%)" stop-opacity="1"/>
<stop offset="0.445312" stop-color="rgb(38.040161%, 40.608215%, 72.88208%)" stop-opacity="1"/>
<stop offset="0.449219" stop-color="rgb(38.465881%, 40.223694%, 72.44873%)" stop-opacity="1"/>
<stop offset="0.453125" stop-color="rgb(38.887024%, 39.837646%, 72.015381%)" stop-opacity="1"/>
<stop offset="0.457031" stop-color="rgb(39.318848%, 39.39209%, 71.452332%)" stop-opacity="1"/>
<stop offset="0.460938" stop-color="rgb(39.749146%, 38.945007%, 70.890808%)" stop-opacity="1"/>
<stop offset="0.464844" stop-color="rgb(40.16571%, 38.580322%, 70.451355%)" stop-opacity="1"/>
<stop offset="0.46875" stop-color="rgb(40.579224%, 38.214111%, 70.011902%)" stop-opacity="1"/>
<stop offset="0.472656" stop-color="rgb(40.991211%, 37.850952%, 69.621277%)" stop-opacity="1"/>
<stop offset="0.476562" stop-color="rgb(41.401672%, 37.483215%, 69.230652%)" stop-opacity="1"/>
<stop offset="0.480469" stop-color="rgb(41.827393%, 37.130737%, 68.870544%)" stop-opacity="1"/>
<stop offset="0.484375" stop-color="rgb(42.251587%, 36.773682%, 68.510437%)" stop-opacity="1"/>
<stop offset="0.488281" stop-color="rgb(42.764282%, 36.497498%, 68.135071%)" stop-opacity="1"/>
<stop offset="0.492188" stop-color="rgb(43.275452%, 36.218262%, 67.758179%)" stop-opacity="1"/>
<stop offset="0.496094" stop-color="rgb(43.795776%, 35.864258%, 67.34314%)" stop-opacity="1"/>
<stop offset="0.5" stop-color="rgb(44.313049%, 35.507202%, 66.926575%)" stop-opacity="1"/>
<stop offset="0.503906" stop-color="rgb(44.831848%, 35.127258%, 66.500854%)" stop-opacity="1"/>
<stop offset="0.507812" stop-color="rgb(45.349121%, 34.744263%, 66.073608%)" stop-opacity="1"/>
<stop offset="0.511719" stop-color="rgb(45.864868%, 34.358215%, 65.647888%)" stop-opacity="1"/>
<stop offset="0.515625" stop-color="rgb(46.379089%, 33.969116%, 65.223694%)" stop-opacity="1"/>
<stop offset="0.519531" stop-color="rgb(46.824646%, 33.631897%, 64.767456%)" stop-opacity="1"/>
<stop offset="0.523438" stop-color="rgb(47.268677%, 33.291626%, 64.311218%)" stop-opacity="1"/>
<stop offset="0.527344" stop-color="rgb(47.749329%, 32.922363%, 63.835144%)" stop-opacity="1"/>
<stop offset="0.53125" stop-color="rgb(48.226929%, 32.551575%, 63.35907%)" stop-opacity="1"/>
<stop offset="0.535156" stop-color="rgb(48.754883%, 32.176208%, 62.878418%)" stop-opacity="1"/>
<stop offset="0.539062" stop-color="rgb(49.279785%, 31.796265%, 62.399292%)" stop-opacity="1"/>
<stop offset="0.542969" stop-color="rgb(49.888611%, 31.492615%, 61.959839%)" stop-opacity="1"/>
<stop offset="0.546875" stop-color="rgb(50.494385%, 31.185913%, 61.521912%)" stop-opacity="1"/>
<stop offset="0.550781" stop-color="rgb(51.098633%, 30.873108%, 61.138916%)" stop-opacity="1"/>
<stop offset="0.554688" stop-color="rgb(51.699829%, 30.558777%, 60.75592%)" stop-opacity="1"/>
<stop offset="0.558594" stop-color="rgb(52.275085%, 30.226135%, 60.35614%)" stop-opacity="1"/>
<stop offset="0.5625" stop-color="rgb(52.848816%, 29.888916%, 59.95636%)" stop-opacity="1"/>
<stop offset="0.566406" stop-color="rgb(53.379822%, 29.528809%, 59.509277%)" stop-opacity="1"/>
<stop offset="0.570313" stop-color="rgb(53.907776%, 29.167175%, 59.063721%)" stop-opacity="1"/>
<stop offset="0.574219" stop-color="rgb(54.548645%, 28.807068%, 58.480835%)" stop-opacity="1"/>
<stop offset="0.578125" stop-color="rgb(55.184937%, 28.44696%, 57.897949%)" stop-opacity="1"/>
<stop offset="0.582031" stop-color="rgb(55.79071%, 28.105164%, 57.450867%)" stop-opacity="1"/>
<stop offset="0.585938" stop-color="rgb(56.393433%, 27.760315%, 57.003784%)" stop-opacity="1"/>
<stop offset="0.589844" stop-color="rgb(56.97937%, 27.406311%, 56.617737%)" stop-opacity="1"/>
<stop offset="0.59375" stop-color="rgb(57.562256%, 27.049255%, 56.231689%)" stop-opacity="1"/>
<stop offset="0.597656" stop-color="rgb(58.149719%, 26.61438%, 55.758667%)" stop-opacity="1"/>
<stop offset="0.601562" stop-color="rgb(58.734131%, 26.174927%, 55.28717%)" stop-opacity="1"/>
<stop offset="0.605469" stop-color="rgb(59.246826%, 25.970459%, 54.812622%)" stop-opacity="1"/>
<stop offset="0.609375" stop-color="rgb(59.75647%, 25.765991%, 54.338074%)" stop-opacity="1"/>
<stop offset="0.613281" stop-color="rgb(60.331726%, 25.485229%, 53.865051%)" stop-opacity="1"/>
<stop offset="0.617188" stop-color="rgb(60.903931%, 25.202942%, 53.393555%)" stop-opacity="1"/>
<stop offset="0.621094" stop-color="rgb(61.585999%, 24.752808%, 52.928162%)" stop-opacity="1"/>
<stop offset="0.625" stop-color="rgb(62.263489%, 24.299622%, 52.462769%)" stop-opacity="1"/>
<stop offset="0.628906" stop-color="rgb(62.826538%, 24.06311%, 52.088928%)" stop-opacity="1"/>
<stop offset="0.632813" stop-color="rgb(63.388062%, 23.825073%, 51.713562%)" stop-opacity="1"/>
<stop offset="0.636719" stop-color="rgb(63.970947%, 23.48938%, 51.266479%)" stop-opacity="1"/>
<stop offset="0.640625" stop-color="rgb(64.549255%, 23.153687%, 50.817871%)" stop-opacity="1"/>
<stop offset="0.644531" stop-color="rgb(65.130615%, 22.773743%, 50.332642%)" stop-opacity="1"/>
<stop offset="0.648438" stop-color="rgb(65.708923%, 22.393799%, 49.848938%)" stop-opacity="1"/>
<stop offset="0.652344" stop-color="rgb(66.265869%, 22.047424%, 49.37439%)" stop-opacity="1"/>
<stop offset="0.65625" stop-color="rgb(66.819763%, 21.70105%, 48.901367%)" stop-opacity="1"/>
<stop offset="0.660156" stop-color="rgb(67.370605%, 21.446228%, 48.46344%)" stop-opacity="1"/>
<stop offset="0.664062" stop-color="rgb(67.921448%, 21.188354%, 48.025513%)" stop-opacity="1"/>
<stop offset="0.667969" stop-color="rgb(68.519592%, 20.947266%, 47.564697%)" stop-opacity="1"/>
<stop offset="0.671875" stop-color="rgb(69.116211%, 20.704651%, 47.102356%)" stop-opacity="1"/>
<stop offset="0.675781" stop-color="rgb(69.766235%, 20.46051%, 46.611023%)" stop-opacity="1"/>
<stop offset="0.679688" stop-color="rgb(70.413208%, 20.214844%, 46.121216%)" stop-opacity="1"/>
<stop offset="0.683594" stop-color="rgb(70.956421%, 19.963074%, 45.759583%)" stop-opacity="1"/>
<stop offset="0.6875" stop-color="rgb(71.498108%, 19.709778%, 45.397949%)" stop-opacity="1"/>
<stop offset="0.691406" stop-color="rgb(72.109985%, 19.386292%, 44.924927%)" stop-opacity="1"/>
<stop offset="0.695313" stop-color="rgb(72.720337%, 19.061279%, 44.45343%)" stop-opacity="1"/>
<stop offset="0.699219" stop-color="rgb(73.336792%, 18.731689%, 43.937683%)" stop-opacity="1"/>
<stop offset="0.703125" stop-color="rgb(73.951721%, 18.400574%, 43.423462%)" stop-opacity="1"/>
<stop offset="0.707031" stop-color="rgb(74.488831%, 18.164062%, 42.941284%)" stop-opacity="1"/>
<stop offset="0.710938" stop-color="rgb(75.024414%, 17.926025%, 42.460632%)" stop-opacity="1"/>
<stop offset="0.714844" stop-color="rgb(75.466919%, 17.709351%, 41.931152%)" stop-opacity="1"/>
<stop offset="0.71875" stop-color="rgb(75.909424%, 17.49115%, 41.404724%)" stop-opacity="1"/>
<stop offset="0.722656" stop-color="rgb(76.431274%, 17.271423%, 40.956116%)" stop-opacity="1"/>
<stop offset="0.726562" stop-color="rgb(76.951599%, 17.051697%, 40.509033%)" stop-opacity="1"/>
<stop offset="0.730469" stop-color="rgb(77.584839%, 16.815186%, 40.1474%)" stop-opacity="1"/>
<stop offset="0.734375" stop-color="rgb(78.216553%, 16.577148%, 39.784241%)" stop-opacity="1"/>
<stop offset="0.738281" stop-color="rgb(78.944397%, 16.226196%, 39.332581%)" stop-opacity="1"/>
<stop offset="0.742188" stop-color="rgb(79.670715%, 15.872192%, 38.88092%)" stop-opacity="1"/>
<stop offset="0.746094" stop-color="rgb(80.189514%, 15.679932%, 38.485718%)" stop-opacity="1"/>
<stop offset="0.75" stop-color="rgb(80.706787%, 15.486145%, 38.090515%)" stop-opacity="1"/>
<stop offset="0.753906" stop-color="rgb(81.130981%, 15.374756%, 37.664795%)" stop-opacity="1"/>
<stop offset="0.757813" stop-color="rgb(81.552124%, 15.264893%, 37.240601%)" stop-opacity="1"/>
<stop offset="0.761719" stop-color="rgb(81.977844%, 15.180969%, 36.683655%)" stop-opacity="1"/>
<stop offset="0.765625" stop-color="rgb(82.400513%, 15.09552%, 36.126709%)" stop-opacity="1"/>
<stop offset="0.769531" stop-color="rgb(83.091736%, 14.767456%, 35.673523%)" stop-opacity="1"/>
<stop offset="0.773438" stop-color="rgb(83.782959%, 14.43634%, 35.223389%)" stop-opacity="1"/>
<stop offset="0.777344" stop-color="rgb(84.40094%, 14.152527%, 34.805298%)" stop-opacity="1"/>
<stop offset="0.78125" stop-color="rgb(85.017395%, 13.868713%, 34.387207%)" stop-opacity="1"/>
<stop offset="0.785156" stop-color="rgb(85.523987%, 13.685608%, 33.97522%)" stop-opacity="1"/>
<stop offset="0.789062" stop-color="rgb(86.029053%, 13.502502%, 33.563232%)" stop-opacity="1"/>
<stop offset="0.792969" stop-color="rgb(86.456299%, 13.542175%, 33.032227%)" stop-opacity="1"/>
<stop offset="0.796875" stop-color="rgb(86.882019%, 13.583374%, 32.501221%)" stop-opacity="1"/>
<stop offset="0.800781" stop-color="rgb(87.442017%, 13.339233%, 32.092285%)" stop-opacity="1"/>
<stop offset="0.804688" stop-color="rgb(87.998962%, 13.093567%, 31.686401%)" stop-opacity="1"/>
<stop offset="0.808594" stop-color="rgb(88.5849%, 12.8479%, 31.312561%)" stop-opacity="1"/>
<stop offset="0.8125" stop-color="rgb(89.16626%, 12.600708%, 30.938721%)" stop-opacity="1"/>
<stop offset="0.816406" stop-color="rgb(89.694214%, 12.60376%, 30.523682%)" stop-opacity="1"/>
<stop offset="0.820312" stop-color="rgb(90.222168%, 12.608337%, 30.105591%)" stop-opacity="1"/>
<stop offset="0.824219" stop-color="rgb(90.54718%, 12.527466%, 29.695129%)" stop-opacity="1"/>
<stop offset="0.828125" stop-color="rgb(90.870667%, 12.445068%, 29.284668%)" stop-opacity="1"/>
<stop offset="0.832031" stop-color="rgb(91.290283%, 12.341309%, 28.866577%)" stop-opacity="1"/>
<stop offset="0.835937" stop-color="rgb(91.706848%, 12.239075%, 28.448486%)" stop-opacity="1"/>
<stop offset="0.839844" stop-color="rgb(92.153931%, 12.138367%, 28.079224%)" stop-opacity="1"/>
<stop offset="0.84375" stop-color="rgb(92.597961%, 12.037659%, 27.711487%)" stop-opacity="1"/>
<stop offset="0.875" stop-color="rgb(92.597961%, 12.037659%, 27.711487%)" stop-opacity="1"/>
<stop offset="1" stop-color="rgb(92.597961%, 12.037659%, 27.711487%)" stop-opacity="1"/>
</linearGradient>
</defs>
<g clip-path="url(#clip-0)">
<g clip-path="url(#clip-1)">
<path fill-rule="nonzero" fill="url(#linear-pattern-0)" d="M 1762.5 -1762.5 L -1691.5 1691.5 L 1762.5 5145.5 L 5216.5 1691.5 Z M 1762.5 -1762.5 "/>
</g>
</g>
</svg>
